# ProBuilder 5.0.7
# https://unity3d.com/unity/features/worldbuilding/probuilder
# 5/23/2023 2:24:18 AM

mtllib ./Pedestal.mtl
o Pedestal

g Pedestal
v -0.5 0 0
v 0 0 0
v -0.497592 0 0.04900837
v -0.4903927 0 0.09754515
v -0.4784698 0 0.1451426
v -0.4619398 0 0.1913419
v -0.4409609 0 0.2356982
v -0.4157352 0 0.2777853
v -0.3865051 0 0.3171968
v -0.3535538 0 0.3535533
v -0.3171968 0 0.3865051
v -0.2777853 0 0.4157348
v -0.2356987 0 0.4409609
v -0.1913414 0 0.4619398
v -0.1451426 0 0.4784703
v -0.09754562 0 0.4903927
v -0.04900837 0 0.4975924
v 0 0 0.5
v 0.04900837 0 0.4975924
v 0.09754562 0 0.4903927
v 0.1451426 0 0.4784703
v 0.1913414 0 0.4619398
v 0.2356987 0 0.4409609
v 0.2777853 0 0.4157348
v 0.3171968 0 0.3865051
v 0.3535538 0 0.3535533
v 0.3865051 0 0.3171968
v 0.4157352 0 0.2777853
v 0.4409609 0 0.2356982
v 0.4619398 0 0.1913419
v 0.4784698 0 0.1451426
v 0.4903927 0 0.09754515
v 0.497592 0 0.04900837
v 0.5 0 0
v 0.497592 0 -0.04900837
v 0.4903927 0 -0.09754515
v 0.4784698 0 -0.1451426
v 0.4619398 0 -0.1913419
v 0.4409609 0 -0.2356982
v 0.4157352 0 -0.2777853
v 0.3865051 0 -0.3171968
v 0.3535538 0 -0.3535533
v 0.3171968 0 -0.3865051
v 0.2777853 0 -0.4157348
v 0.2356987 0 -0.4409609
v 0.1913414 0 -0.4619398
v 0.1451426 0 -0.4784703
v 0.09754562 0 -0.4903927
v 0.04900837 0 -0.4975924
v 0 0 -0.5
v -0.04900837 0 -0.4975924
v -0.09754562 0 -0.4903927
v -0.1451426 0 -0.4784703
v -0.1913414 0 -0.4619398
v -0.2356987 0 -0.4409609
v -0.2777853 0 -0.4157348
v -0.3171968 0 -0.3865051
v -0.3535538 0 -0.3535533
v -0.3865051 0 -0.3171964
v -0.4157352 0 -0.2777853
v -0.4409609 0 -0.2356987
v -0.4619398 0 -0.1913419
v -0.4784698 0 -0.1451426
v -0.4903927 0 -0.09754515
v -0.497592 0 -0.04900837

vt 0.5 0
vt 0 0
vt 0.497592 0.04900837
vt 0.4903927 0.09754515
vt 0.4784698 0.1451426
vt 0.4619398 0.1913419
vt 0.4409609 0.2356982
vt 0.4157352 0.2777853
vt 0.3865051 0.3171968
vt 0.3535538 0.3535533
vt 0.3171968 0.3865051
vt 0.2777853 0.4157348
vt 0.2356987 0.4409609
vt 0.1913414 0.4619398
vt 0.1451426 0.4784703
vt 0.09754562 0.4903927
vt 0.04900837 0.4975924
vt 0 0.5
vt -0.04900837 0.4975924
vt -0.09754562 0.4903927
vt -0.1451426 0.4784703
vt -0.1913414 0.4619398
vt -0.2356987 0.4409609
vt -0.2777853 0.4157348
vt -0.3171968 0.3865051
vt -0.3535538 0.3535533
vt -0.3865051 0.3171968
vt -0.4157352 0.2777853
vt -0.4409609 0.2356982
vt -0.4619398 0.1913419
vt -0.4784698 0.1451426
vt -0.4903927 0.09754515
vt -0.497592 0.04900837
vt -0.5 0
vt -0.497592 -0.04900837
vt -0.4903927 -0.09754515
vt -0.4784698 -0.1451426
vt -0.4619398 -0.1913419
vt -0.4409609 -0.2356982
vt -0.4157352 -0.2777853
vt -0.3865051 -0.3171968
vt -0.3535538 -0.3535533
vt -0.3171968 -0.3865051
vt -0.2777853 -0.4157348
vt -0.2356987 -0.4409609
vt -0.1913414 -0.4619398
vt -0.1451426 -0.4784703
vt -0.09754562 -0.4903927
vt -0.04900837 -0.4975924
vt 0 -0.5
vt 0.04900837 -0.4975924
vt 0.09754562 -0.4903927
vt 0.1451426 -0.4784703
vt 0.1913414 -0.4619398
vt 0.2356987 -0.4409609
vt 0.2777853 -0.4157348
vt 0.3171968 -0.3865051
vt 0.3535538 -0.3535533
vt 0.3865051 -0.3171964
vt 0.4157352 -0.2777853
vt 0.4409609 -0.2356987
vt 0.4619398 -0.1913419
vt 0.4784698 -0.1451426
vt 0.4903927 -0.09754515
vt 0.497592 -0.04900837

vn 0 1 0

usemtl ReflectiveSurface
f 3/3/1 2/2/1 1/1/1
f 4/4/1 2/2/1 3/3/1
f 5/5/1 2/2/1 4/4/1
f 6/6/1 2/2/1 5/5/1
f 7/7/1 2/2/1 6/6/1
f 8/8/1 2/2/1 7/7/1
f 9/9/1 2/2/1 8/8/1
f 10/10/1 2/2/1 9/9/1
f 11/11/1 2/2/1 10/10/1
f 12/12/1 2/2/1 11/11/1
f 13/13/1 2/2/1 12/12/1
f 14/14/1 2/2/1 13/13/1
f 15/15/1 2/2/1 14/14/1
f 16/16/1 2/2/1 15/15/1
f 17/17/1 2/2/1 16/16/1
f 18/18/1 2/2/1 17/17/1
f 19/19/1 2/2/1 18/18/1
f 20/20/1 2/2/1 19/19/1
f 21/21/1 2/2/1 20/20/1
f 22/22/1 2/2/1 21/21/1
f 23/23/1 2/2/1 22/22/1
f 24/24/1 2/2/1 23/23/1
f 25/25/1 2/2/1 24/24/1
f 26/26/1 2/2/1 25/25/1
f 27/27/1 2/2/1 26/26/1
f 28/28/1 2/2/1 27/27/1
f 29/29/1 2/2/1 28/28/1
f 30/30/1 2/2/1 29/29/1
f 31/31/1 2/2/1 30/30/1
f 32/32/1 2/2/1 31/31/1
f 33/33/1 2/2/1 32/32/1
f 34/34/1 2/2/1 33/33/1
f 35/35/1 2/2/1 34/34/1
f 36/36/1 2/2/1 35/35/1
f 37/37/1 2/2/1 36/36/1
f 38/38/1 2/2/1 37/37/1
f 39/39/1 2/2/1 38/38/1
f 40/40/1 2/2/1 39/39/1
f 41/41/1 2/2/1 40/40/1
f 42/42/1 2/2/1 41/41/1
f 43/43/1 2/2/1 42/42/1
f 44/44/1 2/2/1 43/43/1
f 45/45/1 2/2/1 44/44/1
f 46/46/1 2/2/1 45/45/1
f 47/47/1 2/2/1 46/46/1
f 48/48/1 2/2/1 47/47/1
f 49/49/1 2/2/1 48/48/1
f 50/50/1 2/2/1 49/49/1
f 51/51/1 2/2/1 50/50/1
f 52/52/1 2/2/1 51/51/1
f 53/53/1 2/2/1 52/52/1
f 54/54/1 2/2/1 53/53/1
f 55/55/1 2/2/1 54/54/1
f 56/56/1 2/2/1 55/55/1
f 57/57/1 2/2/1 56/56/1
f 58/58/1 2/2/1 57/57/1
f 59/59/1 2/2/1 58/58/1
f 60/60/1 2/2/1 59/59/1
f 61/61/1 2/2/1 60/60/1
f 62/62/1 2/2/1 61/61/1
f 63/63/1 2/2/1 62/62/1
f 64/64/1 2/2/1 63/63/1
f 65/65/1 2/2/1 64/64/1
f 1/1/1 2/2/1 65/65/1

